<?xml version="1.0" encoding="utf-8"?>
<!-- Generator: Adobe Illustrator 28.0.0, SVG Export Plug-In . SVG Version: 6.00 Build 0)  -->
<svg version="1.1" id="レイヤー_1" xmlns="http://www.w3.org/2000/svg" xmlns:xlink="http://www.w3.org/1999/xlink" x="0px"
	 y="0px" viewBox="0 0 712 239" style="enable-background:new 0 0 712 239;" xml:space="preserve">
<style type="text/css">
	.st0{fill:#414BB2;}
	.st1{display:none;fill:#414BB2;}
	.st2{fill-rule:evenodd;clip-rule:evenodd;fill:#FFFFFF;}
	.st3{fill:#FFFFFF;}
</style>
<path class="st0" d="M0,119.5C0,53.5,52.24,0,116.69,0h478c64.45,0,116.69,53.5,116.69,119.5S659.13,239,594.69,239h-478
	C52.24,239,0,185.5,0,119.5z"/>
<g>
	<path class="st1" d="M33,120c0,50.26,40.74,91,91,91c50.26,0,91-40.74,91-91c0-50.26-40.74-91-91-91C73.74,29,33,69.74,33,120z"/>
	<path class="st2" d="M76.68,127.9H215l-43.68,13.79H33L76.68,127.9z"/>
	<path class="st2" d="M87.39,44.98l12.97,2.71L76.82,140.1l-12.96-2.7L87.39,44.98z"/>
	<path class="st3" d="M142.48,48.46h-12.17v147.61h12.17V48.46z"/>
	<path class="st3" d="M113.49,48.46h-12.17v147.61h12.17V48.46z"/>
	<path class="st3" d="M171.47,48.46H159.3v147.61h12.17V48.46z"/>
</g>
<g>
	<path class="st3" d="M626.02,150.79V96.27l3.47,8.16l-14.06,6.82l-2.72-14.59l18.65-9.31h10.31v63.45H626.02z M614.02,155.49v-14.4
		h39.93v14.4H614.02z"/>
	<path class="st3" d="M573.48,150.79V96.27l3.47,8.16l-14.06,6.82l-2.72-14.59l18.65-9.31h10.31v63.45H573.48z M561.48,155.49v-14.4
		h39.93v14.4H561.48z"/>
	<path class="st3" d="M524.35,155.49v-54.33l8.53,0.19l-23.71,29.75l-2.25-2.88h43.49v13.44H499.8l-6.37-12.57l33.46-41.37h12.84
		v67.77H524.35z"/>
	<path class="st3" d="M408.05,155.49v-50.97h14.25l0.47,9.21l-1.97,0.1c0.75-1.66,1.69-3.14,2.81-4.42c1.19-1.28,2.5-2.34,3.94-3.17
		c1.5-0.89,3.03-1.57,4.59-2.01c1.62-0.45,3.25-0.67,4.87-0.67c2.44,0,4.65,0.38,6.65,1.15c2,0.77,3.75,2.01,5.25,3.74
		c1.5,1.66,2.69,3.94,3.56,6.82l-2.34-0.19l0.75-1.54c0.81-1.53,1.84-2.91,3.09-4.13c1.31-1.28,2.75-2.34,4.31-3.17
		c1.56-0.89,3.19-1.57,4.87-2.01c1.69-0.45,3.31-0.67,4.87-0.67c3.94,0,7.22,0.8,9.84,2.4c2.62,1.53,4.59,3.87,5.9,7.01
		c1.38,3.14,2.06,6.94,2.06,11.42v31.1h-15.09v-29.85c0-2.05-0.28-3.74-0.84-5.09s-1.41-2.34-2.53-2.97
		c-1.06-0.7-2.4-1.06-4.03-1.06c-1.31,0-2.53,0.22-3.65,0.67c-1.06,0.45-2,1.06-2.81,1.82c-0.75,0.77-1.34,1.66-1.78,2.69
		c-0.44,1.02-0.66,2.18-0.66,3.46v30.33h-15.09v-29.95c0-1.92-0.28-3.55-0.84-4.89c-0.56-1.34-1.41-2.37-2.53-3.07
		c-1.12-0.7-2.44-1.06-3.94-1.06c-1.31,0-2.53,0.22-3.66,0.67c-1.06,0.45-2,1.06-2.81,1.82c-0.75,0.77-1.34,1.66-1.78,2.69
		c-0.44,1.02-0.66,2.14-0.66,3.36v30.43H408.05z"/>
	<path class="st3" d="M364.73,156.36c-4.19,0-7.93-1.12-11.25-3.36c-3.25-2.3-5.84-5.44-7.78-9.41c-1.94-4.03-2.91-8.57-2.91-13.63
		c0-5.18,0.97-9.76,2.91-13.72c1.94-3.97,4.59-7.07,7.97-9.31c3.37-2.3,7.22-3.46,11.53-3.46c2.37,0,4.53,0.35,6.47,1.06
		c2,0.7,3.75,1.69,5.25,2.97c1.5,1.22,2.78,2.66,3.84,4.32c1.06,1.6,1.84,3.33,2.34,5.18l-3.09-0.38v-12.09h14.9v50.97h-15.18
		v-12.29l3.37-0.1c-0.5,1.79-1.31,3.49-2.44,5.09c-1.12,1.6-2.5,3.01-4.12,4.22c-1.62,1.21-3.44,2.18-5.44,2.88
		C369.11,156,366.98,156.36,364.73,156.36z M368.86,143.4c2.31,0,4.31-0.54,6-1.63c1.69-1.09,3-2.62,3.94-4.61
		c0.94-2.05,1.41-4.45,1.41-7.2c0-2.75-0.47-5.12-1.41-7.1c-0.94-2.05-2.25-3.62-3.94-4.7c-1.69-1.15-3.69-1.73-6-1.73
		c-2.25,0-4.22,0.57-5.9,1.73c-1.62,1.09-2.9,2.66-3.84,4.7c-0.94,1.98-1.4,4.35-1.4,7.1c0,2.75,0.47,5.15,1.4,7.2
		c0.94,1.98,2.22,3.52,3.84,4.61C364.64,142.85,366.61,143.4,368.86,143.4z"/>
	<path class="st3" d="M315.16,156.45c-5.5,0-10.28-1.12-14.34-3.36c-4.06-2.3-7.22-5.41-9.47-9.31c-2.25-3.97-3.37-8.48-3.37-13.53
		c0-3.9,0.62-7.49,1.87-10.75c1.25-3.26,3-6.08,5.25-8.45c2.25-2.43,4.9-4.29,7.97-5.57c3.12-1.34,6.53-2.01,10.22-2.01
		c3.5,0,6.68,0.64,9.56,1.92c2.94,1.28,5.47,3.07,7.59,5.38c2.12,2.3,3.75,5.02,4.87,8.16c1.12,3.14,1.62,6.56,1.5,10.27l-0.09,4.13
		h-39.65l-2.16-8.64h29.62l-1.59,1.82v-1.92c-0.12-1.6-0.62-3.01-1.5-4.22c-0.81-1.28-1.91-2.27-3.28-2.98
		c-1.37-0.7-2.94-1.06-4.69-1.06c-2.44,0-4.53,0.51-6.28,1.53c-1.69,0.96-2.97,2.4-3.84,4.32c-0.88,1.86-1.31,4.16-1.31,6.91
		c0,2.82,0.56,5.28,1.69,7.39c1.19,2.05,2.87,3.65,5.06,4.8c2.25,1.15,4.9,1.73,7.97,1.73c2.12,0,4-0.32,5.62-0.96
		c1.69-0.64,3.5-1.73,5.44-3.26l7.03,10.17c-1.94,1.73-4,3.14-6.18,4.22c-2.19,1.09-4.44,1.89-6.75,2.4
		C319.66,156.16,317.41,156.45,315.16,156.45z"/>
	<path class="st3" d="M258.68,155.49V91.66h15v63.83H258.68z M249.87,117.96v-13.44h33.46v13.44H249.87z"/>
</g>
</svg>
